# xmcd
#
# Track frame offsets: 
#        150
#        15808
#        33090
#        49218
#        63974
#        80277
#        98434
#        114474
#        131976
#        151201
#        164142
#        185806
#        199817
#        216801
#        233613
#        249428
#        261482
#        274443
#
# Disc length: 3834 seconds
#
# Revision: 2
# Processed by: cddbd v1.5.2PL0 Copyright (c) Steve Scherf et al.
# Submitted via: ExactAudioCopyFreeDBPlugin 1.0
#
DISCID=f80ef812
DTITLE=Various Artist - Country Hits 2010
DYEAR=2010
DGENRE=Country
TTITLE0=Jessie Farrell - You Make Me Feel
TTITLE1=Emerson Drive  - Believe
TTITLE2=Aaron Pritchett - Hard To Miss
TTITLE3=George Canyon - Let It Out
TTITLE4=Jaydee Bixby  - Broken Windows
TTITLE5=Sugarland - Joey
TTITLE6=The Road Hammers - I've Got The Scars To Prove It
TTITLE7=Billy Currington - People Are Crazy
TTITLE8=Jo Hikk - Dancin' With The Devil's Daughter
TTITLE9=Gord Bamford - Drinkin' Buddy
TTITLE10=Tara Oram - Go To Bed Angry
TTITLE11=Joe Nichols - Joe Nichols - Believers
TTITLE12=Josh Turner - Josh Turner - Another Day
TTITLE13=Chad Brownlee - The Best That I Can (Superhero)
TTITLE14=Jack Ingram - Barefoot And Crazy
TTITLE15=Rodney Atkins - 15 Minutes
TTITLE16=Randy Houser - Boots On
TTITLE17=Willie Mack - Sumpin' Sumpin'
EXTD=
EXTT0=
EXTT1=
EXTT2=
EXTT3=
EXTT4=
EXTT5=
EXTT6=
EXTT7=
EXTT8=
EXTT9=
EXTT10=
EXTT11=
EXTT12=
EXTT13=
EXTT14=
EXTT15=
EXTT16=
EXTT17=
PLAYORDER=
